<svg xmlns="http://www.w3.org/2000/svg" xmlns:xlink="http://www.w3.org/1999/xlink" version="1.1" x="0px" y="0px" viewBox="0 0 13.6 12.5" style="enable-background:new 0 0 13.6 12.5;" xml:space="preserve" role="img" aria-labelledby="a17g6rlj2mcd68ylgj9sd2k3z140tqpp"><desc id="a17g6rlj2mcd68ylgj9sd2k3z140tqpp">linkedin</desc>
<path d="M1.6,0C0.8-0.1,0.1,0.5,0,1.4c0,0,0,0.1,0,0.1C0,2.3,0.6,2.9,1.5,3c0,0,0.1,0,0.1,0l0,0C2.4,3,3.1,2.4,3.2,1.6  C3.3,0.8,2.7,0.1,1.9,0C1.8,0,1.7,0,1.6,0z M0.3,12.5H3V4H0.3V12.5z M10.3,3.9C9.2,3.8,8.1,4.4,7.6,5.3V4h-3c0,0.7,0,8.5,0,8.5h3  V7.9c0-0.2,0-0.5,0.1-0.7c0.2-0.6,0.8-1,1.4-1c1,0,1.5,0.8,1.5,1.9v4.3h3V7.8C13.6,5.2,12.2,3.9,10.3,3.9L10.3,3.9z"></path>
</svg>