<svg xmlns="http://www.w3.org/2000/svg" xmlns:xlink="http://www.w3.org/1999/xlink" version="1.1" x="0px" y="0px" viewBox="0 0 18 13" style="enable-background:new 0 0 18 13;" xml:space="preserve" role="img" aria-labelledby="a16brmfltng1pcq94j6b49urm3zqy1ys"><desc id="a16brmfltng1pcq94j6b49urm3zqy1ys">youtube</desc>
<path d="M17.8,2.8c-0.1-0.6-0.3-1.3-0.7-1.8c-0.5-0.5-1.1-0.8-1.8-0.8C12.8,0,9,0,9,0l0,0c0,0-3.8,0-6.3,0.2C2,0.2,1.4,0.5,0.9,1  C0.5,1.5,0.3,2.2,0.2,2.8c-0.1,1-0.2,2-0.2,3v1.4c0,1,0.1,2,0.2,3c0.1,0.6,0.3,1.3,0.7,1.8c0.5,0.5,1.3,0.8,2,0.8C4.3,13,9,13,9,13  s3.8,0,6.3-0.2c0.7,0,1.3-0.3,1.8-0.8c0.4-0.5,0.6-1.2,0.7-1.8c0.1-1,0.2-2,0.2-3V5.8C18,4.8,17.9,3.8,17.8,2.8z M7.1,8.9V3.7  L12,6.3L7.1,8.9z"></path>
</svg>